<svg xmlns="http://www.w3.org/2000/svg" xmlns:xlink="http://www.w3.org/1999/xlink" viewBox="0 0 32 32" width="35" height="35" style="" filter="none">
    
    <g>
    <path d="M23.111 17.778c2.946 0 5.333 2.386 5.333 5.333 0 2.946-2.388 5.333-5.333 5.333s-5.333-2.388-5.333-5.333c0-2.948 2.388-5.333 5.333-5.333zM24.889 3.556c0.983 0 1.778 0.795 1.778 1.778v11.653c-1.051-0.612-2.254-0.987-3.556-0.987-3.927 0-7.111 3.184-7.111 7.111 0 2.135 0.962 4.030 2.453 5.333h-11.342c-0.983 0-1.778-0.795-1.778-1.778v-21.333c0-0.983 0.795-1.778 1.778-1.778zM23.111 19.606c-0.491 0-0.889 0.4-0.889 0.889v2.277c0 0.491 0.199 0.935 0.521 1.257v0l1.723 1.724c0.347 0.347 0.91 0.347 1.257 0s0.347-0.91 0-1.257l-1.723-1.724v-2.277c0-0.489-0.396-0.889-0.889-0.889zM13.333 16h-3.556c-0.491 0-0.889 0.398-0.889 0.889s0.398 0.889 0.889 0.889h3.556c0.491 0 0.889-0.398 0.889-0.889s-0.398-0.889-0.889-0.889zM16.889 12.444h-7.111c-0.491 0-0.889 0.398-0.889 0.889s0.398 0.889 0.889 0.889h7.111c0.491 0 0.889-0.398 0.889-0.889s-0.398-0.889-0.889-0.889zM20.444 8.889h-10.667c-0.491 0-0.889 0.398-0.889 0.889s0.398 0.889 0.889 0.889h10.667c0.491 0 0.889-0.398 0.889-0.889s-0.398-0.889-0.889-0.889z" fill="currentColor"></path>
    </g>
  </svg>